Coordinates
nRows=7
nColumns=38

# SIMM Motion File Header:
name Coordinates
datacolumns 38
datarows 7
otherdata 1
range 0.69300000000000006000 0.69900000000000007000

Units are S.I. units (second, meters, Newtons, ...)
Angles are in degrees.

endheader
time	pelvis_tilt	pelvis_list	pelvis_rotation	pelvis_tx	pelvis_ty	pelvis_tz	hip_flexion_r	hip_adduction_r	hip_rotation_r	knee_angle_r	ankle_angle_r	subtalar_angle_r	mtp_angle_r	hip_flexion_l	hip_adduction_l	hip_rotation_l	knee_angle_l	ankle_angle_l	subtalar_angle_l	mtp_angle_l	lumbar_extension	lumbar_bending	lumbar_rotation	arm_flex_r	arm_add_r	arm_rot_r	elbow_flex_r	pro_sup_r	wrist_flex_r	wrist_dev_r	arm_flex_l	arm_add_l	arm_rot_l	elbow_flex_l	pro_sup_l	wrist_flex_l	wrist_dev_l
      0.69300000000000006000	    -13.01081269531375600000	     -0.89929547507327356000	     -2.61317721542466770000	      0.96016334512390755000	      0.97819901019058941000	     -0.35129892400517959000	     14.29739440696900300000	      7.42744627560381950000	      3.92170587556181790000	    -33.54440303968327400000	     22.23364235410825900000	      0.00000000000001883915	     -0.00000000000002878277	     45.43108873452435900000	     -0.75223218194186747000	      0.18734466114689610000	    -89.56637202319643600000	      4.48559438505553750000	     -0.00000000000001069672	     -0.00000000000000701257	     -0.11188200967715810000	      5.48582967325931210000	     10.69680044226555400000	    -17.65141267699944200000	    -22.57197024732058600000	     -8.54151180282740090000	    106.23633348758281000000	    109.60260909401791000000	     -0.00000000000000362774	      0.00000000000000044323	    -34.52884637374454300000	    -14.00622039837296400000	     -1.65538142850364430000	    102.90757404960198000000	    100.70671680937640000000	     -0.00000000000000502320	     -0.00000000000001194570
      0.69400000000000006000	    -13.00759110983419700000	     -0.84390075321745139000	     -2.56100082452303380000	      0.96038605312092584000	      0.97875923015123723000	     -0.35132136438919565000	     13.94555096935039500000	      7.34056927548561690000	      3.91731207933885540000	    -33.24178042397846900000	     21.97527056363887600000	      0.00000000000001959618	     -0.00000000000002915121	     45.53329010507884100000	     -0.67772362990702395000	      0.17405489809002012000	    -89.23026339544728100000	      4.52553095350305230000	     -0.00000000000001079429	     -0.00000000000000715952	     -0.08212965022654442100	      5.40533927228334130000	     10.74866764404682100000	    -17.60013361140914500000	    -22.52384255363686100000	     -8.56101176701330320000	    106.48792219133583000000	    109.69276154538181000000	     -0.00000000000000368189	      0.00000000000000052463	    -34.68313800029021400000	    -14.03086913312635200000	     -1.70294228447641950000	    103.11249896688810000000	    100.63084418467150000000	     -0.00000000000000518474	     -0.00000000000001214530
      0.69500000000000006000	    -13.00410646765480000000	     -0.78847976905369022000	     -2.50754703834303250000	      0.96061368133321712000	      0.97932637586196725000	     -0.35134363536935592000	     13.59391786393002000000	      7.25344208409871530000	      3.91016400726611040000	    -32.93874989789652100000	     21.70815056343469300000	      0.00000000000002031547	     -0.00000000000002944975	     45.63189325183385800000	     -0.60284151689243515000	      0.16052480445399395000	    -88.88887650557569500000	      4.56535470699204370000	     -0.00000000000001089096	     -0.00000000000000729827	     -0.05221745075878704600	      5.32427101692944850000	     10.79782805266032700000	    -17.54911540459802300000	    -22.47528792126503900000	     -8.57887766448752660000	    106.73946551424339000000	    109.78538354211904000000	     -0.00000000000000373618	      0.00000000000000060011	    -34.83811193742821600000	    -14.05505942302979200000	     -1.75301525728561130000	    103.31803783115046000000	    100.56529262093987000000	     -0.00000000000000535179	     -0.00000000000001234435
      0.69600000000000006000	    -13.00035278373960800000	     -0.73302924831142058000	     -2.45281610239614610000	      0.96084605288873992000	      0.97990025328615649000	     -0.35136578087862569000	     13.24259672314029100000	      7.16607384603227880000	      3.90017115221809970000	    -32.63547707952730500000	     21.43232618545681200000	      0.00000000000002104154	     -0.00000000000002971974	     45.72690537943466200000	     -0.52757693592123855000	      0.14675080345007910000	    -88.54224973338429500000	      4.60505300633231850000	     -0.00000000000001099201	     -0.00000000000000744283	     -0.02219391049217069400	      5.24262722731330650000	     10.84429979721787300000	    -17.49835657648732800000	    -22.42635004556012700000	     -8.59504079349856910000	    106.99089490434157000000	    109.88032051041176000000	     -0.00000000000000379086	      0.00000000000000068845	    -34.99368854382179000000	    -14.07878193650670800000	     -1.80556525565426740000	    103.52402751890061000000	    100.50983492169308000000	     -0.00000000000000551850	     -0.00000000000001254359
      0.69700000000000006000	    -12.99632525371620600000	     -0.67754369538831483000	     -2.39681149102804980000	      0.96108298840203987000	      0.98048066529949773000	     -0.35138784040811433000	     12.89168910379837400000	      7.07847336638316890000	      3.88724752199640560000	    -32.33212519340261800000	     21.14784830101501000000	      0.00000000000002175382	     -0.00000000000002997930	     45.81833482016801900000	     -0.45192006043626815000	      0.13272644303827702000	    -88.19041984259700900000	      4.64461556802797390000	     -0.00000000000001109999	     -0.00000000000000759010	      0.00789321525965431400	      5.16040768475197000000	     10.88810605907405300000	    -17.44785918169994700000	    -22.37707178168974700000	     -8.60943784289679390000	    107.24214952934479000000	    109.97740833054165000000	     -0.00000000000000384610	      0.00000000000000077913	    -35.14978985906041900000	    -14.10202954933208400000	     -1.86055242274175940000	    103.73031423037737000000	    100.46420705460297000000	     -0.00000000000000568298	     -0.00000000000001274305
      0.69800000000000006000	    -12.99202029261809300000	     -0.62201562979453751000	     -2.33953983430505690000	      0.96132430635853949000	      0.98106741171192902000	     -0.35140984881234882000	     12.54129641562251900000	      6.99064935610161430000	      3.87131190827390800000	    -32.02885490444091200000	     20.85477491470647800000	      0.00000000000002243478	     -0.00000000000003023237	     45.90619104436536400000	     -0.37586037271641021000	      0.11844263311415520000	    -87.83342200540545300000	      4.68403467430037160000	     -0.00000000000001120851	     -0.00000000000000771875	      0.03799704982975457600	      5.07760986670379210000	     10.92927477272710700000	    -17.39762841911236500000	    -22.32749504370597600000	     -8.62201094868573750000	    107.49317590366101000000	    110.07647460547024000000	     -0.00000000000000390169	      0.00000000000000087468	    -35.30633968546005300000	    -14.12479717259893200000	     -1.91793244916142800000	    103.93675334811806000000	    100.42811043377282000000	     -0.00000000000000585490	     -0.00000000000001294323
      0.69900000000000007000	    -12.98743557381172300000	     -0.56643582324082387000	     -2.28101084519373920000	      0.96156982349046249000	      0.98166028928560212000	     -0.35143183610555834000	     12.19151984937055400000	      6.90261067594380510000	      3.85228815595062320000	    -31.72582415367821400000	     20.55317125694728700000	      0.00000000000002313521	     -0.00000000000003047008	     45.99048467048844200000	     -0.29938689177998723000	      0.10388788163008028000	    -87.47128982760902700000	      4.72330538303384630000	     -0.00000000000001132442	     -0.00000000000000786036	      0.06807172936461107500	      4.99422918028026070000	     10.96783832658989900000	    -17.34767224147825400000	    -22.27766070244407000000	     -8.63270775006084530000	    107.74392751515640000000	    110.17733992943101000000	     -0.00000000000000395724	      0.00000000000000097680	    -35.46326366707477000000	    -14.14708158214976000000	     -1.97765688616078150000	    104.14320929508818000000	    100.40121420203481000000	     -0.00000000000000604271	     -0.00000000000001314317
